<svg width="33" height="33" viewBox="0 0 33 33" fill="none" xmlns="http://www.w3.org/2000/svg">
<path d="M19.25 26.125H26.125V6.875H6.875V26.125H16.5V19.25H13.75V16.5H16.5V14.2257C16.5 12.3874 16.6925 11.7205 17.05 11.0481C17.4024 10.3831 17.9466 9.83935 18.612 9.4875C19.1372 9.20563 19.7904 9.0365 20.9316 8.96362C21.3845 8.93429 21.9702 8.97096 22.6889 9.07363V11.6861H22C20.7391 11.6861 20.218 11.7453 19.9072 11.9116C19.722 12.0072 19.5711 12.1581 19.4755 12.3434C19.3105 12.6541 19.25 12.9621 19.25 14.2244V16.5H22.6875L22 19.25H19.25V26.125ZM5.5 4.125H27.5C27.8647 4.125 28.2144 4.26987 28.4723 4.52773C28.7301 4.78559 28.875 5.13533 28.875 5.5V27.5C28.875 27.8647 28.7301 28.2144 28.4723 28.4723C28.2144 28.7301 27.8647 28.875 27.5 28.875H5.5C5.13533 28.875 4.78559 28.7301 4.52773 28.4723C4.26987 28.2144 4.125 27.8647 4.125 27.5V5.5C4.125 5.13533 4.26987 4.78559 4.52773 4.52773C4.78559 4.26987 5.13533 4.125 5.5 4.125Z" fill="#283149"/>
</svg>
