<svg width="30" height="30" viewBox="0 0 30 30" fill="none" xmlns="http://www.w3.org/2000/svg">
<path d="M3.125 15C3.125 9.4025 3.125 6.6025 4.86375 4.86375C6.6025 3.125 9.40125 3.125 15 3.125C20.5975 3.125 23.3975 3.125 25.1362 4.86375C26.875 6.6025 26.875 9.40125 26.875 15C26.875 20.5975 26.875 23.3975 25.1362 25.1362C23.3975 26.875 20.5988 26.875 15 26.875C9.4025 26.875 6.6025 26.875 4.86375 25.1362C3.125 23.3975 3.125 20.5988 3.125 15Z" stroke="#283149" stroke-width="1.6875" stroke-linecap="round" stroke-linejoin="round"/>
<path d="M21.25 11.9875C19.89 6.92875 15.215 7.24499 15.215 7.24499C15.215 7.24499 8.75 6.81499 8.75 15C8.75 23.185 15.215 22.755 15.215 22.755C15.215 22.755 19.0588 23.01 20.8188 19.3775C21.3938 17.7762 21.25 14.5725 15.6463 14.5725C15.6463 14.5725 13.06 14.5725 13.06 16.7287C13.06 17.57 13.9225 18.4525 15.215 18.4525C15.9435 18.4506 16.6475 18.1891 17.2006 17.7148C17.7536 17.2406 18.1195 16.5847 18.2325 15.865C19.095 10.6937 14.3537 10.2625 13.06 12.4175" stroke="#283149" stroke-width="1.6875" stroke-linecap="round" stroke-linejoin="round"/>
</svg>
