<svg width="300" height="62" viewBox="0 0 300 62" fill="none" xmlns="http://www.w3.org/2000/svg">
<path d="M2.46687 10.8161C2.45059 10.7347 2.44245 10.6533 2.44245 10.5718C2.44245 10.0996 2.61342 9.73327 2.95536 9.47274C3.31359 9.19593 3.69624 9.05752 4.10331 9.05752C4.44526 9.05752 4.76277 9.16336 5.05587 9.37504C5.34896 9.58672 5.52808 9.92052 5.59321 10.3764C6.17939 14.5286 6.79001 18.3225 7.42504 21.7583C8.07636 25.1777 8.75211 28.247 9.45228 30.9663C10.8363 36.3722 12.1797 39.4334 13.4823 40.1499C13.7428 40.2802 13.9789 40.2394 14.1906 40.0278C17.1704 37.1457 20.7364 27.3433 24.8886 10.6207C24.9862 10.2625 25.1816 9.98565 25.4747 9.79026C25.7841 9.57858 26.1098 9.47274 26.4517 9.47274C26.8914 9.47274 27.2822 9.65999 27.6241 10.0345C27.9823 10.409 28.0963 10.8649 27.966 11.4023C23.9604 27.4736 20.4433 37.3981 17.4147 41.1757C16.2911 42.5761 15.0292 43.2762 13.6289 43.2762C12.0657 43.2762 10.6816 42.3237 9.4767 40.4186C8.28804 38.5135 7.22151 35.6965 6.27709 31.9677C5.00702 26.9362 3.73695 19.8857 2.46687 10.8161ZM30.3743 14.1378C30.3743 13.5353 30.5534 12.9573 30.9116 12.4037C31.2861 11.8338 31.7421 11.3778 32.2794 11.0359C32.8167 10.6777 33.3459 10.4986 33.867 10.4986C34.6323 10.4986 35.2755 10.8242 35.7965 11.4755C36.3339 12.1106 36.6025 12.7456 36.6025 13.3807C36.6025 13.9831 36.4153 14.5367 36.0408 15.0415C35.6663 15.5463 35.1615 15.9127 34.5265 16.1406C33.81 16.4988 33.175 16.678 32.6213 16.678C32.0189 16.678 31.4897 16.4337 31.0338 15.9452C30.5941 15.4405 30.3743 14.838 30.3743 14.1378ZM34.3311 39.8324C34.2822 41.135 34.1031 42.1771 33.7937 42.9587C33.4843 43.724 32.947 44.1067 32.1817 44.1067C31.7583 44.1067 31.3838 43.952 31.0582 43.6426C30.7325 43.3332 30.5697 42.9506 30.5697 42.4946C30.5697 42.283 30.6104 42.0713 30.6918 41.8596C30.8384 41.5177 30.9523 40.8419 31.0338 39.8324C31.1314 38.8065 31.2047 37.6016 31.2536 36.2175C31.3024 34.8335 31.335 33.4087 31.3513 31.9433C31.3838 30.4615 31.4001 29.0856 31.4001 27.8155C31.4001 26.5455 31.4001 25.5359 31.4001 24.7869C31.4001 23.4028 31.392 22.0758 31.3757 20.8057C31.3757 20.2846 31.5385 19.8939 31.8642 19.6333C32.2061 19.3728 32.5806 19.2425 32.9877 19.2425C33.3785 19.2425 33.7286 19.3728 34.038 19.6333C34.3636 19.8776 34.5265 20.2521 34.5265 20.7568C34.5427 21.6198 34.5509 22.4666 34.5509 23.297C34.5672 24.1274 34.5753 24.9416 34.5753 25.7394C34.5753 28.3936 34.559 30.7953 34.5265 32.9447C34.5102 35.094 34.445 37.3899 34.3311 39.8324ZM40.6472 18.6563C41.1194 18.6563 41.5102 18.8436 41.8196 19.2181C42.992 20.6347 43.8468 22.8166 44.3842 25.7639C46.5987 21.7583 49.4563 19.5031 52.9572 18.9983C53.5108 18.9169 54.0563 18.8762 54.5936 18.8762C56.5476 18.8762 58.2736 19.3239 59.7716 20.2195C61.2696 21.1151 62.499 22.2956 63.4597 23.7611C64.4204 25.2265 65.0717 26.806 65.4137 28.4994C65.6416 29.5904 65.7556 30.7058 65.7556 31.8456C65.7556 35.4441 64.6077 39.2462 62.3117 43.2518C62.0187 43.7566 61.5709 44.009 60.9684 44.009C60.4636 44.009 60.0077 43.7729 59.6006 43.3007C59.2098 42.8122 59.1936 42.2667 59.5518 41.6642C61.5709 38.1471 62.5804 34.8661 62.5804 31.8211C62.5804 30.9093 62.4909 30.0219 62.3117 29.1589C62.0512 27.9051 61.5709 26.7408 60.8707 25.6662C60.1868 24.5915 59.3075 23.7285 58.2329 23.0772C57.1745 22.4096 55.9532 22.0758 54.5692 22.0758C54.1947 22.0758 53.812 22.1002 53.4212 22.149C51.8092 22.377 50.4333 23.0853 49.2935 24.274C48.1537 25.4626 47.2337 26.9037 46.5335 28.5971C45.8496 30.2743 45.353 31.984 45.0436 33.7263C45.0436 33.9379 45.0436 34.1496 45.0436 34.3613C45.0436 36.706 44.9215 39.0671 44.6773 41.4444L44.5796 42.3969C44.5307 42.8529 44.3516 43.1948 44.0422 43.4228C43.7329 43.6345 43.3991 43.7403 43.0408 43.7403C42.65 43.7403 42.2837 43.6182 41.9417 43.3739C41.6161 43.1297 41.4451 42.7633 41.4288 42.2748C41.3962 41.5421 41.38 40.8256 41.38 40.1255C41.38 37.7319 41.5428 35.5255 41.8685 33.5064C41.8033 29.7613 41.5102 26.9525 40.9892 25.08C40.4844 23.2237 40.0203 22.0351 39.597 21.514C39.2062 21.0255 39.0108 20.594 39.0108 20.2195C39.0108 19.7473 39.1818 19.3728 39.5237 19.096C39.8656 18.8029 40.2402 18.6563 40.6472 18.6563ZM71.339 34.3369C71.339 36.3397 71.9171 37.9435 73.0732 39.1485C74.2456 40.3534 75.9146 40.9559 78.0802 40.9559C79.9527 40.9559 82.1591 40.5 84.6992 39.5881C84.8783 39.523 85.0656 39.4904 85.261 39.4904C85.6844 39.4904 86.0507 39.6451 86.3601 39.9545C86.6858 40.2476 86.8486 40.6058 86.8486 41.0292C86.8486 41.4037 86.7427 41.7293 86.5311 42.0062C86.3194 42.283 86.067 42.4702 85.7739 42.5679C82.8755 43.6263 80.3028 44.1555 78.0558 44.1555C75.5645 44.1555 73.521 43.5693 71.9252 42.3969C70.3295 41.2083 69.2548 39.694 68.7012 37.854C68.343 36.6653 68.1639 35.4685 68.1639 34.2636C68.1639 32.619 68.4895 30.9419 69.1408 29.2321C69.7433 27.6364 70.6063 26.1302 71.7298 24.7136C72.8696 23.297 74.2456 22.149 75.8576 21.2698C77.4859 20.3742 79.3177 19.9264 81.3531 19.9264C82.6883 19.9264 84.0723 20.1462 85.5052 20.5859C85.8797 20.6999 86.1484 20.8953 86.3112 21.1721C86.4904 21.4326 86.5799 21.7175 86.5799 22.0269C86.5799 22.434 86.4415 22.8166 86.1647 23.1749C85.9042 23.5168 85.5459 23.6878 85.09 23.6878C84.9272 23.6878 84.7644 23.6634 84.6015 23.6145C83.5594 23.3051 82.5417 23.1504 81.5485 23.1504C79.9853 23.1504 78.5768 23.4924 77.323 24.1763C76.0855 24.8439 75.0271 25.7232 74.1479 26.8141C73.2686 27.8888 72.5928 29.053 72.1206 30.3068C71.5996 31.6909 71.339 33.0342 71.339 34.3369ZM106.671 21.0011C106.899 20.0892 107.429 19.6333 108.259 19.6333C108.65 19.6333 108.992 19.7799 109.285 20.073C109.594 20.3661 109.773 20.6999 109.822 21.0744C109.969 22.5561 110.042 23.9727 110.042 25.3242C110.042 27.2293 109.896 29.0123 109.602 30.6732C109.7 36.2908 110.205 39.9464 111.117 41.6398C111.231 41.8352 111.296 41.941 111.312 41.9573C111.849 42.2504 112.118 42.7226 112.118 43.3739C112.118 43.9927 111.858 44.4405 111.337 44.7173C110.816 44.9941 110.229 44.9615 109.578 44.6196C108.357 43.9845 107.478 41.8515 106.94 38.2204C106.403 39.1485 105.686 40.0848 104.791 41.0292C103.895 41.9736 102.869 42.7633 101.713 43.3983C100.574 44.0171 99.336 44.3265 98.0008 44.3265C97.1378 44.3265 96.2829 44.1718 95.4362 43.8624C93.4009 43.1134 91.854 41.5828 90.7956 39.2706C89.7372 36.9421 89.208 34.2799 89.208 31.2838C89.208 28.0923 89.7616 24.4287 90.8689 20.2928C90.9666 19.9346 91.1701 19.6577 91.4795 19.4624C91.7888 19.2507 92.1145 19.1448 92.4564 19.1448C92.8961 19.1448 93.295 19.3402 93.6532 19.731C94.0115 20.1218 94.1092 20.5859 93.9463 21.1232C92.8879 24.9334 92.3587 28.2877 92.3587 31.1861C92.3587 33.3843 92.66 35.322 93.2625 36.9991C93.6858 38.1715 94.2964 39.1648 95.0943 39.9789C95.8922 40.7768 96.8447 41.1757 97.952 41.1757C98.8964 41.1757 99.8733 40.8501 100.883 40.1987C103.684 38.4076 105.532 35.1429 106.427 30.4045C106.427 30.0789 106.419 29.7451 106.403 29.4031C106.403 29.0449 106.403 28.6867 106.403 28.3284C106.403 27.6283 106.411 26.9037 106.427 26.1547C106.444 25.3894 106.468 24.6078 106.501 23.8099L106.671 21.0011ZM116.407 7.93399C116.814 7.93399 117.172 8.10497 117.482 8.44691C117.807 8.77257 117.954 9.15522 117.921 9.59486C117.645 16.3523 117.433 22.0758 117.286 26.7653C117.14 31.4548 117.067 35.1184 117.067 37.7563C117.067 40.0522 117.124 41.5665 117.238 42.2992C117.254 42.3969 117.262 42.4865 117.262 42.5679C117.262 43.0564 117.091 43.4309 116.749 43.6914C116.407 43.952 116.033 44.0822 115.626 44.0822C115.284 44.0822 114.958 43.9764 114.649 43.7647C114.355 43.553 114.176 43.2192 114.111 42.7633C113.981 41.9329 113.916 40.2313 113.916 37.6586C113.916 32.1875 114.201 22.7841 114.771 9.44831C114.787 9.02495 114.958 8.66673 115.284 8.37364C115.626 8.08054 116 7.93399 116.407 7.93399ZM141.921 26.8385C141.97 27.0177 141.994 27.2049 141.994 27.4003C141.994 27.7748 141.921 28.2063 141.774 28.6948C141.53 31.2675 141.408 33.5634 141.408 35.5825C141.408 38.3995 141.644 40.6872 142.116 42.4458C142.165 42.6086 142.19 42.7633 142.19 42.9099C142.19 43.3658 142.01 43.724 141.652 43.9845C141.31 44.2613 140.936 44.3998 140.529 44.3998C140.219 44.3998 139.926 44.3102 139.649 44.1311C139.373 43.952 139.177 43.6589 139.063 43.2518C138.558 41.3793 138.29 39.0019 138.257 36.1199C136.71 38.6111 135.049 40.5732 133.275 42.0062C132.2 42.8692 131.093 43.3576 129.953 43.4716C129.269 43.667 128.601 43.7647 127.95 43.7647C127.022 43.7647 126.175 43.5937 125.41 43.2518C124.645 42.9099 123.985 42.4784 123.432 41.9573C122.438 41.0292 121.665 39.8324 121.111 38.3669C120.574 36.8852 120.305 35.1754 120.305 33.2378C120.305 30.7465 120.883 28.3691 122.039 26.1058C123.733 22.7841 126.306 20.5696 129.758 19.4624C131.076 19.0227 132.347 18.8029 133.568 18.8029C135.098 18.8029 136.539 19.1611 137.891 19.8776C140.252 21.1314 141.595 23.4517 141.921 26.8385ZM138.746 27.0584C138.599 25.4952 138.086 24.2577 137.207 23.3458C136.344 22.434 135.163 21.9781 133.665 21.9781C132.77 21.9781 131.793 22.149 130.735 22.491C128.113 23.3214 126.2 24.9253 124.995 27.3026C123.985 29.3054 123.48 31.3001 123.48 33.2866C123.48 34.6869 123.668 35.9407 124.042 37.048C124.417 38.1552 124.897 38.9857 125.483 39.5393C126.216 40.2232 127.046 40.5651 127.975 40.5651C128.284 40.5651 128.577 40.5325 128.854 40.4674C129.147 40.386 129.473 40.329 129.831 40.2964C130.108 40.2639 130.653 39.9301 131.467 39.295C132.281 38.6437 133.144 37.7237 134.056 36.5351C134.984 35.3464 135.856 34.0112 136.67 32.5295C137.484 31.0477 138.143 29.5578 138.648 28.0598C138.664 27.8969 138.681 27.7341 138.697 27.5713C138.713 27.3922 138.729 27.2212 138.746 27.0584Z" fill="#171717"/>
<path d="M197.717 44.7661C197.342 44.7661 196.984 44.6033 196.642 44.2776C196.3 43.9683 196.145 43.6182 196.178 43.2274C196.764 35.3627 198.026 28.2877 199.964 22.0025C201.901 15.7498 204.214 11.6058 206.9 9.57044C208.008 8.74 209.082 8.32479 210.124 8.32479C213.088 8.32479 215.864 11.5977 218.453 18.1434C220.716 23.8913 222.687 31.4303 224.364 40.7605L224.755 42.9099C224.771 43.0076 224.779 43.0971 224.779 43.1785C224.779 43.667 224.6 44.0415 224.242 44.3021C223.9 44.5789 223.525 44.7173 223.118 44.7173C222.776 44.7173 222.459 44.6114 222.166 44.3998C221.872 44.2044 221.685 43.8868 221.604 43.4472L221.237 41.3223C220.863 39.2218 220.472 37.219 220.065 35.3138C219.658 33.3925 219.235 31.5688 218.795 29.8428H201.283C200.322 34.5974 199.679 39.0915 199.353 43.3251C199.321 43.7484 199.141 44.0904 198.816 44.3509C198.49 44.6277 198.124 44.7661 197.717 44.7661ZM201.991 26.6676H217.965C216.141 20.1707 214.252 15.6928 212.298 13.2341C211.842 12.6479 211.386 12.2246 210.93 11.964C210.507 11.7361 210.198 11.6302 210.002 11.6465C208.96 11.7768 207.934 12.5991 206.925 14.1134C204.971 17.0443 203.326 21.2291 201.991 26.6676ZM238.398 46.9643C239.684 47.0457 240.718 47.4365 241.5 48.1367C242.282 48.8531 242.672 49.822 242.672 51.0432C242.672 51.7922 242.51 52.4843 242.184 53.1193C241.712 53.9823 240.987 54.7232 240.01 55.3419C239.049 55.9607 237.893 56.2701 236.542 56.2701C235.044 56.2701 233.481 55.7571 231.852 54.7313C231.348 54.4219 231.095 54.0149 231.095 53.5101C231.095 53.0542 231.234 52.6552 231.51 52.3133C231.803 51.9713 232.162 51.8004 232.585 51.8004C232.96 51.8004 233.375 51.9469 233.831 52.24C234.124 52.4191 234.547 52.6145 235.101 52.8262C235.671 53.0542 236.241 53.1681 236.81 53.1681C237.234 53.1681 237.608 53.0949 237.934 52.9483C238.195 52.8181 238.52 52.5738 238.911 52.2156C239.318 51.8736 239.522 51.4991 239.522 51.0921C239.522 50.4245 239.049 50.0907 238.105 50.0907C237.844 50.0907 237.56 50.1151 237.25 50.1639C236.957 50.2128 236.631 50.2372 236.273 50.2372C235.947 50.2372 235.646 50.0662 235.369 49.7243C235.093 49.3986 234.954 49.0323 234.954 48.6252C234.954 48.5601 234.962 48.4949 234.979 48.4298L235.614 44.1311C235.614 44.1148 235.41 44.0822 235.003 44.0334C234.563 43.9845 234.002 43.8298 233.318 43.5693C231.348 42.8854 229.817 41.7782 228.726 40.2476C227.651 38.7007 227.114 36.6979 227.114 34.2392C227.114 32.4806 227.423 30.8279 228.042 29.281C228.677 27.7178 229.475 26.3338 230.436 25.1288C231.396 23.9076 232.39 22.9306 233.415 22.1979C235.565 20.6836 237.877 19.9264 240.352 19.9264C241.671 19.9264 243.047 20.1462 244.48 20.5859C244.822 20.6999 245.09 20.9115 245.286 21.2209C245.481 21.514 245.579 21.8315 245.579 22.1735C245.579 22.5968 245.383 22.9876 244.993 23.3458C244.602 23.6878 244.13 23.7773 243.576 23.6145C242.534 23.3051 241.516 23.1504 240.523 23.1504C238.976 23.1504 237.576 23.4924 236.322 24.1763C235.084 24.8439 234.018 25.7232 233.122 26.8141C232.243 27.8888 231.567 29.053 231.095 30.3068C230.574 31.6909 230.314 33.0342 230.314 34.3369C230.314 36.3397 230.892 37.9435 232.048 39.1485C233.22 40.3534 234.889 40.9559 237.055 40.9559C238.927 40.9559 241.134 40.5 243.674 39.5881C243.853 39.523 244.04 39.4904 244.236 39.4904C244.659 39.4904 245.025 39.637 245.335 39.9301C245.66 40.2232 245.823 40.5814 245.823 41.0047C245.823 41.3955 245.717 41.7293 245.506 42.0062C245.294 42.283 245.042 42.4702 244.748 42.5679C242.615 43.3658 240.621 43.8624 238.764 44.0578C238.764 44.3183 238.756 44.4893 238.74 44.5707L238.398 46.9643ZM250.796 18.0946C250.454 18.0946 250.12 17.9399 249.795 17.6305C249.469 17.3211 249.306 17.0036 249.306 16.678C249.306 16.336 249.339 16.0918 249.404 15.9452C249.827 14.7729 250.592 13.7389 251.7 12.8433C252.823 11.9315 254.158 11.4755 255.705 11.4755C257.22 11.4755 258.807 11.9966 260.468 13.0387C261.185 13.4946 261.787 13.8691 262.275 14.1622C262.764 14.439 263.138 14.6344 263.399 14.7484C263.92 14.9601 264.417 15.0659 264.889 15.0659C265.508 15.0659 266.078 14.8543 266.599 14.4309C267.136 14.0076 267.445 13.5272 267.527 12.9899C267.608 12.5502 267.787 12.1839 268.064 11.8908C268.341 11.5814 268.715 11.4267 269.188 11.4267C269.53 11.4267 269.871 11.5651 270.213 11.8419C270.555 12.1187 270.726 12.42 270.726 12.7456C270.726 14.3088 270.124 15.6114 268.919 16.6535C267.714 17.6956 266.387 18.2167 264.938 18.2167C263.456 18.2167 261.844 17.6712 260.102 16.5803C259.483 16.1895 258.807 15.7743 258.074 15.3346C257.358 14.8787 256.593 14.6507 255.779 14.6507C254.981 14.6507 254.272 14.895 253.654 15.3835C253.035 15.8557 252.612 16.4011 252.384 17.0199C252.286 17.2967 252.09 17.5491 251.797 17.7771C251.504 17.9887 251.17 18.0946 250.796 18.0946ZM269.798 26.8385C269.847 27.0177 269.871 27.2049 269.871 27.4003C269.871 27.7748 269.798 28.2063 269.652 28.6948C269.407 31.2675 269.285 33.5634 269.285 35.5825C269.285 38.3995 269.521 40.6872 269.994 42.4458C270.042 42.6086 270.067 42.7633 270.067 42.9099C270.067 43.3658 269.888 43.724 269.53 43.9845C269.188 44.2613 268.813 44.3998 268.406 44.3998C268.097 44.3998 267.804 44.3102 267.527 44.1311C267.25 43.952 267.055 43.6589 266.941 43.2518C266.436 41.3793 266.167 39.0019 266.135 36.1199C264.588 38.6111 262.927 40.5732 261.152 42.0062C260.077 42.8692 258.97 43.3576 257.83 43.4716C257.146 43.667 256.479 43.7647 255.827 43.7647C254.899 43.7647 254.053 43.5937 253.287 43.2518C252.522 42.9099 251.862 42.4784 251.309 41.9573C250.316 41.0292 249.542 39.8324 248.989 38.3669C248.451 36.8852 248.183 35.1754 248.183 33.2378C248.183 30.7465 248.761 28.3691 249.917 26.1058C251.61 22.7841 254.183 20.5696 257.635 19.4624C258.954 19.0227 260.224 18.8029 261.445 18.8029C262.976 18.8029 264.417 19.1611 265.768 19.8776C268.129 21.1314 269.473 23.4517 269.798 26.8385ZM266.623 27.0584C266.476 25.4952 265.964 24.2577 265.084 23.3458C264.221 22.434 263.041 21.9781 261.543 21.9781C260.647 21.9781 259.67 22.149 258.612 22.491C255.99 23.3214 254.077 24.9253 252.872 27.3026C251.862 29.3054 251.358 31.3001 251.358 33.2866C251.358 34.6869 251.545 35.9407 251.919 37.048C252.294 38.1389 252.774 38.9612 253.361 39.5149C254.11 40.1987 254.948 40.5407 255.876 40.5407C256.186 40.5407 256.479 40.5081 256.756 40.443C257.032 40.3779 257.35 40.329 257.708 40.2964C257.985 40.2639 258.53 39.9301 259.345 39.295C260.159 38.6437 261.022 37.7237 261.934 36.5351C262.862 35.3464 263.733 34.0112 264.547 32.5295C265.361 31.0477 266.021 29.5578 266.525 28.0598C266.542 27.8969 266.558 27.7341 266.574 27.5713C266.59 27.3922 266.607 27.2212 266.623 27.0584ZM284.98 18.4854C289.035 18.7296 292.357 20.7324 294.946 24.4938C295.646 25.5033 296.183 26.6269 296.558 27.8644C296.932 29.0856 297.119 30.4452 297.119 31.9433C297.119 34.174 296.59 36.1768 295.532 37.9517C294.473 39.7103 293.195 41.0699 291.697 42.0306C290.737 42.6493 289.654 43.146 288.449 43.5205C287.244 43.8787 285.998 44.0578 284.712 44.0578C282.318 44.0578 280.275 43.5368 278.581 42.4946C276.904 41.4362 275.553 40.1255 274.527 38.5623C273.143 36.4129 272.451 34.1089 272.451 31.6502C272.451 30.9989 272.5 30.3394 272.597 29.6718C273.053 26.4315 274.413 23.7773 276.676 21.7094C278.956 19.6252 281.528 18.5261 284.394 18.4121C284.59 18.3795 284.785 18.404 284.98 18.4854ZM293.92 31.7723C293.92 29.8835 293.48 28.1982 292.601 26.7164C291.722 25.2184 290.582 24.0297 289.181 23.1504C287.797 22.2549 286.34 21.7583 284.809 21.6606C284.679 21.6606 284.549 21.6361 284.419 21.5873C282.758 21.685 281.26 22.1979 279.925 23.126C278.589 24.0379 277.531 25.2428 276.749 26.7408C275.984 28.2226 275.601 29.8753 275.601 31.699C275.601 33.0994 275.87 34.3694 276.407 35.5092C276.961 36.649 277.669 37.626 278.532 38.4402C279.412 39.238 280.324 39.8324 281.268 40.2232C282.408 40.6791 283.58 40.9071 284.785 40.9071C286.462 40.9071 287.985 40.5163 289.352 39.7347C290.737 38.9368 291.787 37.9761 292.503 36.8526C292.975 36.1036 293.325 35.2976 293.553 34.4346C293.798 33.5553 293.92 32.6679 293.92 31.7723Z" fill="#171717"/>
<path d="M147.486 20.6305C147.486 31.6107 156.563 37.4609 163.206 42.6993C165.55 44.5463 167.808 46.2871 170.066 46.2871C172.323 46.2871 174.581 44.5485 176.925 42.697C183.57 37.4632 192.645 31.6107 192.645 20.6328C192.645 9.65482 180.226 1.86278 170.066 12.4208C159.905 1.86278 147.486 9.6503 147.486 20.6305Z" fill="#F73859"/>
<path d="M155.485 18.9211C155.476 18.8752 155.472 18.8293 155.472 18.7834C155.472 18.5172 155.568 18.3107 155.761 18.1639C155.963 18.0078 156.178 17.9298 156.408 17.9298C156.601 17.9298 156.78 17.9895 156.945 18.1088C157.11 18.2281 157.211 18.4163 157.248 18.6733C157.578 21.0138 157.922 23.1524 158.28 25.089C158.647 27.0165 159.028 28.7466 159.423 30.2795C160.203 33.3267 160.96 35.0523 161.695 35.4561C161.841 35.5295 161.975 35.5066 162.094 35.3873C163.774 33.7627 165.784 28.2372 168.124 18.8109C168.179 18.609 168.289 18.453 168.455 18.3428C168.629 18.2235 168.813 18.1639 169.005 18.1639C169.253 18.1639 169.473 18.2694 169.666 18.4805C169.868 18.6916 169.932 18.9486 169.859 19.2515C167.601 28.3107 165.618 33.905 163.911 36.0344C163.278 36.8237 162.567 37.2184 161.777 37.2184C160.896 37.2184 160.116 36.6814 159.437 35.6076C158.767 34.5337 158.166 32.9458 157.633 30.8439C156.917 28.0078 156.201 24.0335 155.485 18.9211Z" fill="white"/>
<path d="M169.336 38.0582C169.125 38.0582 168.923 37.9664 168.73 37.7829C168.537 37.6085 168.45 37.4111 168.468 37.1909C168.799 32.7576 169.51 28.7696 170.602 25.2267C171.695 21.7022 172.998 19.3662 174.512 18.2189C175.137 17.7508 175.742 17.5168 176.33 17.5168C178 17.5168 179.565 19.3616 181.025 23.0514C182.3 26.2914 183.411 30.541 184.356 35.8003L184.577 37.0119C184.586 37.0669 184.59 37.1174 184.59 37.1633C184.59 37.4387 184.489 37.6498 184.288 37.7966C184.095 37.9527 183.884 38.0307 183.654 38.0307C183.462 38.0307 183.283 37.971 183.117 37.8517C182.952 37.7416 182.847 37.5626 182.801 37.3148L182.594 36.117C182.383 34.9329 182.163 33.804 181.933 32.7301C181.704 31.647 181.465 30.6191 181.217 29.6461H171.346C170.804 32.3263 170.442 34.8595 170.258 37.2459C170.24 37.4846 170.139 37.6773 169.955 37.8242C169.772 37.9802 169.565 38.0582 169.336 38.0582ZM171.745 27.8563H180.749C179.721 24.1941 178.657 21.67 177.555 20.2841C177.298 19.9537 177.041 19.715 176.784 19.5682C176.546 19.4397 176.371 19.38 176.261 19.3892C175.674 19.4626 175.095 19.9261 174.526 20.7797C173.425 22.4318 172.498 24.7907 171.745 27.8563Z" fill="white"/>
</svg>
