<svg width="287" height="180" viewBox="0 0 287 180" fill="none" xmlns="http://www.w3.org/2000/svg">
<path d="M7.73438 6.67188C7.70312 6.51563 7.6875 6.35937 7.6875 6.20312C7.6875 5.29688 8.01562 4.59375 8.67188 4.09375C9.35938 3.5625 10.0938 3.29688 10.875 3.29688C11.5312 3.29688 12.1406 3.5 12.7031 3.90625C13.2656 4.3125 13.6094 4.95312 13.7344 5.82812C14.8594 13.7969 16.0312 21.0781 17.25 27.6719C18.5 34.2344 19.7969 40.125 21.1406 45.3438C23.7969 55.7188 26.375 61.5938 28.875 62.9688C29.375 63.2188 29.8281 63.1406 30.2344 62.7344C35.9531 57.2031 42.7969 38.3906 50.7656 6.29688C50.9531 5.60937 51.3281 5.07812 51.8906 4.70312C52.4844 4.29687 53.1094 4.09375 53.7656 4.09375C54.6094 4.09375 55.3594 4.45313 56.0156 5.17188C56.7031 5.89062 56.9219 6.76562 56.6719 7.79688C48.9844 38.6406 42.2344 57.6875 36.4219 64.9375C34.2656 67.625 31.8438 68.9688 29.1562 68.9688C26.1562 68.9688 23.5 67.1406 21.1875 63.4844C18.9062 59.8281 16.8594 54.4219 15.0469 47.2656C12.6094 37.6094 10.1719 24.0781 7.73438 6.67188ZM61.2938 13.0469C61.2938 11.8906 61.6375 10.7813 62.325 9.71875C63.0438 8.625 63.9188 7.75 64.95 7.09375C65.9813 6.40625 66.9969 6.0625 67.9969 6.0625C69.4656 6.0625 70.7 6.6875 71.7 7.9375C72.7313 9.15625 73.2469 10.375 73.2469 11.5938C73.2469 12.75 72.8875 13.8125 72.1688 14.7812C71.45 15.75 70.4813 16.4531 69.2625 16.8906C67.8875 17.5781 66.6688 17.9219 65.6063 17.9219C64.45 17.9219 63.4344 17.4531 62.5594 16.5156C61.7156 15.5469 61.2938 14.3906 61.2938 13.0469ZM68.8875 62.3594C68.7938 64.8594 68.45 66.8594 67.8563 68.3594C67.2625 69.8281 66.2313 70.5625 64.7625 70.5625C63.95 70.5625 63.2313 70.2656 62.6063 69.6719C61.9813 69.0781 61.6688 68.3438 61.6688 67.4688C61.6688 67.0625 61.7469 66.6562 61.9031 66.25C62.1844 65.5938 62.4031 64.2969 62.5594 62.3594C62.7469 60.3906 62.8875 58.0781 62.9813 55.4219C63.075 52.7656 63.1375 50.0312 63.1688 47.2188C63.2313 44.375 63.2625 41.7344 63.2625 39.2969C63.2625 36.8594 63.2625 34.9219 63.2625 33.4844C63.2625 30.8281 63.2469 28.2812 63.2156 25.8438C63.2156 24.8438 63.5281 24.0938 64.1531 23.5938C64.8094 23.0938 65.5281 22.8438 66.3094 22.8438C67.0594 22.8438 67.7313 23.0938 68.325 23.5938C68.95 24.0625 69.2625 24.7812 69.2625 25.75C69.2938 27.4062 69.3094 29.0312 69.3094 30.625C69.3406 32.2188 69.3563 33.7812 69.3563 35.3125C69.3563 40.4062 69.325 45.0156 69.2625 49.1406C69.2313 53.2656 69.1063 57.6719 68.8875 62.3594ZM81.0094 21.7188C81.9156 21.7188 82.6656 22.0781 83.2594 22.7969C85.5094 25.5156 87.15 29.7031 88.1813 35.3594C92.4313 27.6719 97.9156 23.3438 104.634 22.375C105.697 22.2188 106.744 22.1406 107.775 22.1406C111.525 22.1406 114.838 23 117.713 24.7188C120.588 26.4375 122.947 28.7031 124.791 31.5156C126.634 34.3281 127.884 37.3594 128.541 40.6094C128.978 42.7031 129.197 44.8438 129.197 47.0312C129.197 53.9375 126.994 61.2344 122.588 68.9219C122.025 69.8906 121.166 70.375 120.009 70.375C119.041 70.375 118.166 69.9219 117.384 69.0156C116.634 68.0781 116.603 67.0312 117.291 65.875C121.166 59.125 123.103 52.8281 123.103 46.9844C123.103 45.2344 122.931 43.5312 122.588 41.875C122.088 39.4688 121.166 37.2344 119.822 35.1719C118.509 33.1094 116.822 31.4531 114.759 30.2031C112.728 28.9219 110.384 28.2812 107.728 28.2812C107.009 28.2812 106.275 28.3281 105.525 28.4219C102.431 28.8594 99.7906 30.2188 97.6031 32.5C95.4156 34.7812 93.65 37.5469 92.3063 40.7969C90.9938 44.0156 90.0406 47.2969 89.4469 50.6406C89.4469 51.0469 89.4469 51.4531 89.4469 51.8594C89.4469 56.3594 89.2125 60.8906 88.7438 65.4531L88.5563 67.2812C88.4625 68.1562 88.1188 68.8125 87.525 69.25C86.9313 69.6562 86.2906 69.8594 85.6031 69.8594C84.8531 69.8594 84.15 69.625 83.4938 69.1562C82.8688 68.6875 82.5406 67.9844 82.5094 67.0469C82.4469 65.6406 82.4156 64.2656 82.4156 62.9219C82.4156 58.3281 82.7281 54.0938 83.3531 50.2188C83.2281 43.0312 82.6656 37.6406 81.6656 34.0469C80.6969 30.4844 79.8063 28.2031 78.9938 27.2031C78.2438 26.2656 77.8688 25.4375 77.8688 24.7188C77.8688 23.8125 78.1969 23.0938 78.8531 22.5625C79.5094 22 80.2281 21.7188 81.0094 21.7188ZM139.912 51.8125C139.912 55.6562 141.022 58.7344 143.241 61.0469C145.491 63.3594 148.694 64.5156 152.85 64.5156C156.444 64.5156 160.678 63.6406 165.553 61.8906C165.897 61.7656 166.256 61.7031 166.631 61.7031C167.444 61.7031 168.147 62 168.741 62.5938C169.366 63.1562 169.678 63.8438 169.678 64.6562C169.678 65.375 169.475 66 169.069 66.5312C168.662 67.0625 168.178 67.4219 167.616 67.6094C162.053 69.6406 157.116 70.6562 152.803 70.6562C148.022 70.6562 144.1 69.5312 141.037 67.2812C137.975 65 135.912 62.0938 134.85 58.5625C134.162 56.2812 133.819 53.9844 133.819 51.6719C133.819 48.5156 134.444 45.2969 135.694 42.0156C136.85 38.9531 138.506 36.0625 140.662 33.3438C142.85 30.625 145.491 28.4219 148.584 26.7344C151.709 25.0156 155.225 24.1562 159.131 24.1562C161.694 24.1562 164.35 24.5781 167.1 25.4219C167.819 25.6406 168.334 26.0156 168.647 26.5469C168.991 27.0469 169.162 27.5938 169.162 28.1875C169.162 28.9688 168.897 29.7031 168.366 30.3906C167.866 31.0469 167.178 31.375 166.303 31.375C165.991 31.375 165.678 31.3281 165.366 31.2344C163.366 30.6406 161.412 30.3438 159.506 30.3438C156.506 30.3438 153.803 31 151.397 32.3125C149.022 33.5938 146.991 35.2812 145.303 37.375C143.616 39.4375 142.319 41.6719 141.412 44.0781C140.412 46.7344 139.912 49.3125 139.912 51.8125ZM207.722 26.2188C208.159 24.4688 209.175 23.5938 210.769 23.5938C211.519 23.5938 212.175 23.875 212.738 24.4375C213.331 25 213.675 25.6406 213.769 26.3594C214.05 29.2031 214.191 31.9219 214.191 34.5156C214.191 38.1719 213.909 41.5938 213.347 44.7812C213.534 55.5625 214.503 62.5781 216.253 65.8281C216.472 66.2031 216.597 66.4062 216.628 66.4375C217.659 67 218.175 67.9062 218.175 69.1562C218.175 70.3438 217.675 71.2031 216.675 71.7344C215.675 72.2656 214.55 72.2031 213.3 71.5469C210.956 70.3281 209.269 66.2344 208.238 59.2656C207.206 61.0469 205.831 62.8438 204.113 64.6562C202.394 66.4688 200.425 67.9844 198.206 69.2031C196.019 70.3906 193.644 70.9844 191.081 70.9844C189.425 70.9844 187.784 70.6875 186.159 70.0938C182.253 68.6562 179.284 65.7188 177.253 61.2812C175.222 56.8125 174.206 51.7031 174.206 45.9531C174.206 39.8281 175.269 32.7969 177.394 24.8594C177.581 24.1719 177.972 23.6406 178.566 23.2656C179.159 22.8594 179.784 22.6562 180.441 22.6562C181.284 22.6562 182.05 23.0312 182.738 23.7812C183.425 24.5312 183.613 25.4219 183.3 26.4531C181.269 33.7656 180.253 40.2031 180.253 45.7656C180.253 49.9844 180.831 53.7031 181.988 56.9219C182.8 59.1719 183.972 61.0781 185.503 62.6406C187.034 64.1719 188.863 64.9375 190.988 64.9375C192.8 64.9375 194.675 64.3125 196.613 63.0625C201.988 59.625 205.534 53.3594 207.253 44.2656C207.253 43.6406 207.238 43 207.206 42.3438C207.206 41.6562 207.206 40.9688 207.206 40.2812C207.206 38.9375 207.222 37.5469 207.253 36.1094C207.284 34.6406 207.331 33.1406 207.394 31.6094L207.722 26.2188ZM226.406 1.14062C227.188 1.14062 227.875 1.46875 228.469 2.125C229.094 2.75 229.375 3.48438 229.312 4.32812C228.781 17.2969 228.375 28.2812 228.094 37.2812C227.812 46.2812 227.672 53.3125 227.672 58.375C227.672 62.7812 227.781 65.6875 228 67.0938C228.031 67.2812 228.047 67.4531 228.047 67.6094C228.047 68.5469 227.719 69.2656 227.062 69.7656C226.406 70.2656 225.688 70.5156 224.906 70.5156C224.25 70.5156 223.625 70.3125 223.031 69.9062C222.469 69.5 222.125 68.8594 222 67.9844C221.75 66.3906 221.625 63.125 221.625 58.1875C221.625 47.6875 222.172 29.6406 223.266 4.04688C223.297 3.23438 223.625 2.54688 224.25 1.98438C224.906 1.42188 225.625 1.14062 226.406 1.14062ZM275.372 37.4219C275.466 37.7656 275.512 38.125 275.512 38.5C275.512 39.2188 275.372 40.0469 275.091 40.9844C274.622 45.9219 274.387 50.3281 274.387 54.2031C274.387 59.6094 274.841 64 275.747 67.375C275.841 67.6875 275.887 67.9844 275.887 68.2656C275.887 69.1406 275.544 69.8281 274.856 70.3281C274.2 70.8594 273.481 71.125 272.7 71.125C272.106 71.125 271.544 70.9531 271.012 70.6094C270.481 70.2656 270.106 69.7031 269.887 68.9219C268.919 65.3281 268.403 60.7656 268.341 55.2344C265.372 60.0156 262.184 63.7812 258.778 66.5312C256.716 68.1875 254.591 69.125 252.403 69.3438C251.091 69.7188 249.809 69.9062 248.559 69.9062C246.778 69.9062 245.153 69.5781 243.684 68.9219C242.216 68.2656 240.95 67.4375 239.887 66.4375C237.981 64.6562 236.497 62.3594 235.434 59.5469C234.403 56.7031 233.887 53.4219 233.887 49.7031C233.887 44.9219 234.997 40.3594 237.216 36.0156C240.466 29.6406 245.403 25.3906 252.028 23.2656C254.559 22.4219 256.997 22 259.341 22C262.278 22 265.044 22.6875 267.637 24.0625C272.169 26.4688 274.747 30.9219 275.372 37.4219ZM269.278 37.8438C268.997 34.8438 268.012 32.4688 266.325 30.7188C264.669 28.9688 262.403 28.0938 259.528 28.0938C257.809 28.0938 255.934 28.4219 253.903 29.0781C248.872 30.6719 245.2 33.75 242.887 38.3125C240.95 42.1562 239.981 45.9844 239.981 49.7969C239.981 52.4844 240.341 54.8906 241.059 57.0156C241.778 59.1406 242.7 60.7344 243.825 61.7969C245.231 63.1094 246.825 63.7656 248.606 63.7656C249.2 63.7656 249.762 63.7031 250.294 63.5781C250.856 63.4219 251.481 63.3125 252.169 63.25C252.7 63.1875 253.747 62.5469 255.309 61.3281C256.872 60.0781 258.528 58.3125 260.278 56.0312C262.059 53.75 263.731 51.1875 265.294 48.3438C266.856 45.5 268.122 42.6406 269.091 39.7656C269.122 39.4531 269.153 39.1406 269.184 38.8281C269.216 38.4844 269.247 38.1562 269.278 37.8438Z" fill="#171717"/>
<path d="M90.6406 146.828C89.9219 146.828 89.2344 146.516 88.5781 145.891C87.9219 145.297 87.625 144.625 87.6875 143.875C88.8125 128.781 91.2344 115.203 94.9531 103.141C98.6719 91.1406 103.109 83.1875 108.266 79.2812C110.391 77.6875 112.453 76.8906 114.453 76.8906C120.141 76.8906 125.469 83.1719 130.438 95.7344C134.781 106.766 138.562 121.234 141.781 139.141L142.531 143.266C142.562 143.453 142.578 143.625 142.578 143.781C142.578 144.719 142.234 145.438 141.547 145.938C140.891 146.469 140.172 146.734 139.391 146.734C138.734 146.734 138.125 146.531 137.562 146.125C137 145.75 136.641 145.141 136.484 144.297L135.781 140.219C135.062 136.188 134.312 132.344 133.531 128.688C132.75 125 131.938 121.5 131.094 118.188H97.4844C95.6406 127.312 94.4062 135.938 93.7812 144.062C93.7188 144.875 93.375 145.531 92.75 146.031C92.125 146.562 91.4219 146.828 90.6406 146.828ZM98.8438 112.094H129.5C126 99.625 122.375 91.0312 118.625 86.3125C117.75 85.1875 116.875 84.375 116 83.875C115.188 83.4375 114.594 83.2344 114.219 83.2656C112.219 83.5156 110.25 85.0938 108.312 88C104.562 93.625 101.406 101.656 98.8438 112.094ZM168.716 151.047C171.184 151.203 173.169 151.953 174.669 153.297C176.169 154.672 176.919 156.531 176.919 158.875C176.919 160.312 176.606 161.641 175.981 162.859C175.075 164.516 173.684 165.938 171.809 167.125C169.966 168.312 167.747 168.906 165.153 168.906C162.278 168.906 159.278 167.922 156.153 165.953C155.184 165.359 154.7 164.578 154.7 163.609C154.7 162.734 154.966 161.969 155.497 161.312C156.059 160.656 156.747 160.328 157.559 160.328C158.278 160.328 159.075 160.609 159.95 161.172C160.513 161.516 161.325 161.891 162.388 162.297C163.481 162.734 164.575 162.953 165.669 162.953C166.481 162.953 167.2 162.812 167.825 162.531C168.325 162.281 168.95 161.812 169.7 161.125C170.481 160.469 170.872 159.75 170.872 158.969C170.872 157.688 169.966 157.047 168.153 157.047C167.653 157.047 167.106 157.094 166.513 157.188C165.95 157.281 165.325 157.328 164.638 157.328C164.013 157.328 163.434 157 162.903 156.344C162.372 155.719 162.106 155.016 162.106 154.234C162.106 154.109 162.122 153.984 162.153 153.859L163.372 145.609C163.372 145.578 162.981 145.516 162.2 145.422C161.356 145.328 160.278 145.031 158.966 144.531C155.184 143.219 152.247 141.094 150.153 138.156C148.091 135.188 147.059 131.344 147.059 126.625C147.059 123.25 147.653 120.078 148.841 117.109C150.059 114.109 151.591 111.453 153.434 109.141C155.278 106.797 157.184 104.922 159.153 103.516C163.278 100.609 167.716 99.1562 172.466 99.1562C174.997 99.1562 177.638 99.5781 180.388 100.422C181.044 100.641 181.559 101.047 181.934 101.641C182.309 102.203 182.497 102.812 182.497 103.469C182.497 104.281 182.122 105.031 181.372 105.719C180.622 106.375 179.716 106.547 178.653 106.234C176.653 105.641 174.7 105.344 172.794 105.344C169.825 105.344 167.138 106 164.731 107.312C162.356 108.594 160.309 110.281 158.591 112.375C156.903 114.438 155.606 116.672 154.7 119.078C153.7 121.734 153.2 124.312 153.2 126.812C153.2 130.656 154.309 133.734 156.528 136.047C158.778 138.359 161.981 139.516 166.138 139.516C169.731 139.516 173.966 138.641 178.841 136.891C179.184 136.766 179.544 136.703 179.919 136.703C180.731 136.703 181.434 136.984 182.028 137.547C182.653 138.109 182.966 138.797 182.966 139.609C182.966 140.359 182.763 141 182.356 141.531C181.95 142.062 181.466 142.422 180.903 142.609C176.809 144.141 172.981 145.094 169.419 145.469C169.419 145.969 169.403 146.297 169.372 146.453L168.716 151.047ZM192.509 95.6406C191.853 95.6406 191.213 95.3438 190.588 94.75C189.963 94.1562 189.65 93.5469 189.65 92.9219C189.65 92.2656 189.713 91.7969 189.838 91.5156C190.65 89.2656 192.119 87.2812 194.244 85.5625C196.4 83.8125 198.963 82.9375 201.931 82.9375C204.838 82.9375 207.884 83.9375 211.072 85.9375C212.447 86.8125 213.603 87.5312 214.541 88.0938C215.478 88.625 216.197 89 216.697 89.2188C217.697 89.625 218.65 89.8281 219.556 89.8281C220.744 89.8281 221.838 89.4219 222.838 88.6094C223.869 87.7969 224.463 86.875 224.619 85.8438C224.775 85 225.119 84.2969 225.65 83.7344C226.181 83.1406 226.9 82.8438 227.806 82.8438C228.463 82.8438 229.119 83.1094 229.775 83.6406C230.431 84.1719 230.759 84.75 230.759 85.375C230.759 88.375 229.603 90.875 227.291 92.875C224.978 94.875 222.431 95.875 219.65 95.875C216.806 95.875 213.713 94.8281 210.369 92.7344C209.181 91.9844 207.884 91.1875 206.478 90.3438C205.103 89.4688 203.634 89.0312 202.072 89.0312C200.541 89.0312 199.181 89.5 197.994 90.4375C196.806 91.3438 195.994 92.3906 195.556 93.5781C195.369 94.1094 194.994 94.5938 194.431 95.0312C193.869 95.4375 193.228 95.6406 192.509 95.6406ZM228.978 112.422C229.072 112.766 229.119 113.125 229.119 113.5C229.119 114.219 228.978 115.047 228.697 115.984C228.228 120.922 227.994 125.328 227.994 129.203C227.994 134.609 228.447 139 229.353 142.375C229.447 142.688 229.494 142.984 229.494 143.266C229.494 144.141 229.15 144.828 228.463 145.328C227.806 145.859 227.088 146.125 226.306 146.125C225.713 146.125 225.15 145.953 224.619 145.609C224.088 145.266 223.713 144.703 223.494 143.922C222.525 140.328 222.009 135.766 221.947 130.234C218.978 135.016 215.791 138.781 212.384 141.531C210.322 143.188 208.197 144.125 206.009 144.344C204.697 144.719 203.416 144.906 202.166 144.906C200.384 144.906 198.759 144.578 197.291 143.922C195.822 143.266 194.556 142.438 193.494 141.438C191.588 139.656 190.103 137.359 189.041 134.547C188.009 131.703 187.494 128.422 187.494 124.703C187.494 119.922 188.603 115.359 190.822 111.016C194.072 104.641 199.009 100.391 205.634 98.2656C208.166 97.4219 210.603 97 212.947 97C215.884 97 218.65 97.6875 221.244 99.0625C225.775 101.469 228.353 105.922 228.978 112.422ZM222.884 112.844C222.603 109.844 221.619 107.469 219.931 105.719C218.275 103.969 216.009 103.094 213.134 103.094C211.416 103.094 209.541 103.422 207.509 104.078C202.478 105.672 198.806 108.75 196.494 113.312C194.556 117.156 193.588 120.984 193.588 124.797C193.588 127.484 193.947 129.891 194.666 132.016C195.384 134.109 196.306 135.688 197.431 136.75C198.869 138.062 200.478 138.719 202.259 138.719C202.853 138.719 203.416 138.656 203.947 138.531C204.478 138.406 205.088 138.312 205.775 138.25C206.306 138.188 207.353 137.547 208.916 136.328C210.478 135.078 212.134 133.312 213.884 131.031C215.666 128.75 217.338 126.188 218.9 123.344C220.463 120.5 221.728 117.641 222.697 114.766C222.728 114.453 222.759 114.141 222.791 113.828C222.822 113.484 222.853 113.156 222.884 112.844ZM258.116 96.3906C265.897 96.8594 272.272 100.703 277.241 107.922C278.584 109.859 279.616 112.016 280.334 114.391C281.053 116.734 281.413 119.344 281.413 122.219C281.413 126.5 280.397 130.344 278.366 133.75C276.334 137.125 273.881 139.734 271.006 141.578C269.163 142.766 267.084 143.719 264.772 144.438C262.459 145.125 260.069 145.469 257.6 145.469C253.006 145.469 249.084 144.469 245.834 142.469C242.616 140.438 240.022 137.922 238.053 134.922C235.397 130.797 234.069 126.375 234.069 121.656C234.069 120.406 234.163 119.141 234.35 117.859C235.225 111.641 237.834 106.547 242.178 102.578C246.553 98.5781 251.491 96.4688 256.991 96.25C257.366 96.1875 257.741 96.2344 258.116 96.3906ZM275.272 121.891C275.272 118.266 274.428 115.031 272.741 112.188C271.053 109.312 268.866 107.031 266.178 105.344C263.522 103.625 260.725 102.672 257.788 102.484C257.538 102.484 257.288 102.438 257.038 102.344C253.85 102.531 250.975 103.516 248.413 105.297C245.85 107.047 243.819 109.359 242.319 112.234C240.85 115.078 240.116 118.25 240.116 121.75C240.116 124.438 240.631 126.875 241.663 129.062C242.725 131.25 244.084 133.125 245.741 134.688C247.428 136.219 249.178 137.359 250.991 138.109C253.178 138.984 255.428 139.422 257.741 139.422C260.959 139.422 263.881 138.672 266.506 137.172C269.163 135.641 271.178 133.797 272.553 131.641C273.459 130.203 274.131 128.656 274.569 127C275.038 125.312 275.272 123.609 275.272 121.891Z" fill="#171717"/>
<path d="M7.66669 109.025C7.66669 127.667 23.0767 137.599 34.3544 146.492C38.3334 149.628 42.1667 152.583 46 152.583C49.8334 152.583 53.6667 149.632 57.6457 146.488C68.9272 137.603 84.3334 127.667 84.3334 109.029C84.3334 90.3913 63.25 77.1625 46 95.0872C28.75 77.1625 7.66669 90.3837 7.66669 109.025Z" fill="#F73859"/>
<path d="M21.247 105.471C21.2314 105.393 21.2236 105.315 21.2236 105.237C21.2236 104.785 21.3872 104.434 21.7145 104.185C22.0573 103.92 22.4235 103.788 22.8131 103.788C23.1403 103.788 23.4442 103.889 23.7246 104.091C24.0051 104.294 24.1765 104.613 24.2389 105.05C24.7998 109.023 25.3842 112.654 25.9919 115.942C26.6152 119.214 27.2619 122.152 27.932 124.754C29.2565 129.928 30.5421 132.857 31.7887 133.543C32.038 133.667 32.2639 133.628 32.4665 133.426C35.3181 130.668 38.7307 121.287 42.7043 105.284C42.7978 104.941 42.9848 104.676 43.2653 104.489C43.5614 104.286 43.873 104.185 44.2003 104.185C44.621 104.185 44.995 104.364 45.3222 104.723C45.665 105.081 45.7741 105.517 45.6494 106.032C41.8161 121.412 38.4503 130.909 35.5519 134.524C34.4767 135.865 33.269 136.535 31.9289 136.535C30.433 136.535 29.1085 135.623 27.9553 133.8C26.8178 131.977 25.7971 129.281 24.8933 125.712C23.6779 120.897 22.4624 114.15 21.247 105.471Z" fill="white"/>
<path d="M44.7611 137.96C44.4027 137.96 44.0599 137.805 43.7327 137.493C43.4054 137.197 43.2574 136.862 43.2886 136.488C43.8495 128.961 45.0572 122.191 46.9115 116.176C48.7659 110.192 50.9786 106.226 53.5497 104.278C54.6094 103.484 55.6378 103.086 56.6351 103.086C59.4712 103.086 62.128 106.219 64.6056 112.483C66.7716 117.983 68.6571 125.198 70.2621 134.127L70.6361 136.184C70.6517 136.277 70.6595 136.363 70.6595 136.441C70.6595 136.909 70.4881 137.267 70.1453 137.516C69.818 137.781 69.4596 137.914 69.0701 137.914C68.7428 137.914 68.439 137.812 68.1585 137.61C67.878 137.423 67.6988 137.119 67.6209 136.698L67.2703 134.665C66.9119 132.654 66.5379 130.738 66.1483 128.915C65.7588 127.076 65.3536 125.331 64.9329 123.679H48.1737C47.2544 128.229 46.6388 132.53 46.3272 136.581C46.296 136.986 46.1246 137.314 45.813 137.563C45.5013 137.828 45.1507 137.96 44.7611 137.96ZM48.8516 120.64H64.1382C62.3929 114.423 60.5853 110.138 58.7154 107.785C58.2791 107.224 57.8428 106.818 57.4065 106.569C57.0013 106.351 56.7052 106.25 56.5182 106.265C55.521 106.39 54.5392 107.177 53.5731 108.626C51.7032 111.431 50.1294 115.436 48.8516 120.64Z" fill="white"/>
</svg>
