<svg width="358" height="358" viewBox="0 0 358 358" fill="none" xmlns="http://www.w3.org/2000/svg">
<path d="M29.8333 136.294C29.8333 208.833 89.7983 247.482 133.683 282.089C149.167 294.291 164.083 305.792 179 305.792C193.917 305.792 208.833 294.306 224.317 282.074C268.217 247.497 328.167 208.833 328.167 136.309C328.167 63.7837 246.125 12.3063 179 82.0566C111.875 12.3063 29.8333 63.7538 29.8333 136.294Z" fill="#F73859"/>
<path d="M82.6784 123.266C82.6177 122.963 82.5874 122.659 82.5874 122.356C82.5874 120.598 83.2241 119.233 84.4975 118.263C85.8315 117.232 87.2565 116.717 88.7724 116.717C90.0457 116.717 91.2282 117.111 92.3196 117.899C93.4111 118.688 94.0781 119.931 94.3206 121.629C96.5036 137.091 98.7775 151.219 101.142 164.014C103.568 176.747 106.084 188.178 108.692 198.304C113.846 218.435 118.848 229.835 123.699 232.503C124.669 232.988 125.549 232.837 126.337 232.048C137.433 221.316 150.713 184.812 166.175 122.538C166.539 121.204 167.267 120.173 168.358 119.446C169.51 118.657 170.723 118.263 171.996 118.263C173.634 118.263 175.089 118.961 176.362 120.355C177.696 121.75 178.121 123.448 177.636 125.449C162.719 185.297 149.621 222.255 138.343 236.323C134.159 241.538 129.46 244.145 124.245 244.145C118.424 244.145 113.27 240.598 108.783 233.504C104.356 226.409 100.384 215.919 96.8674 202.033C92.1377 183.296 87.408 157.04 82.6784 123.266Z" fill="white"/>
<path d="M174.179 249.694C172.785 249.694 171.451 249.087 170.177 247.874C168.904 246.722 168.328 245.419 168.449 243.963C170.632 214.676 175.332 188.329 182.547 164.923C189.763 141.639 198.374 126.207 208.379 118.627C212.502 115.535 216.504 113.988 220.385 113.988C231.421 113.988 241.759 126.176 251.4 150.552C259.829 171.957 267.166 200.032 273.412 234.777L274.867 242.781C274.928 243.145 274.958 243.478 274.958 243.782C274.958 245.601 274.291 246.995 272.957 247.965C271.683 248.996 270.289 249.512 268.773 249.512C267.5 249.512 266.317 249.118 265.226 248.329C264.134 247.602 263.437 246.419 263.134 244.782L261.769 236.869C260.375 229.047 258.919 221.588 257.404 214.494C255.888 207.339 254.311 200.547 252.674 194.12H187.459C183.881 211.826 181.486 228.562 180.273 244.327C180.152 245.904 179.485 247.177 178.272 248.147C177.06 249.178 175.695 249.694 174.179 249.694ZM190.097 182.296H249.581C242.79 158.102 235.756 141.426 228.48 132.27C226.782 130.087 225.084 128.511 223.386 127.541C221.81 126.692 220.658 126.298 219.93 126.358C216.049 126.843 212.229 129.905 208.47 135.545C201.193 146.459 195.069 162.043 190.097 182.296Z" fill="white"/>
</svg>
